<svg width="11" height="20" viewBox="0 0 11 20" fill="none" xmlns="http://www.w3.org/2000/svg">
<path d="M9.96826 9.71191C9.96826 9.52881 9.89502 9.36035 9.75586 9.22852L3.95508 3.54492C3.82324 3.42041 3.66211 3.35449 3.47168 3.35449C3.09814 3.35449 2.80518 3.64014 2.80518 4.021C2.80518 4.2041 2.87842 4.37256 2.99561 4.49707L8.32764 9.71191L2.99561 14.9268C2.87842 15.0513 2.80518 15.2124 2.80518 15.4028C2.80518 15.7837 3.09814 16.0693 3.47168 16.0693C3.66211 16.0693 3.82324 16.0034 3.95508 15.8716L9.75586 10.1953C9.89502 10.0562 9.96826 9.89502 9.96826 9.71191Z" fill="#666666"/>
</svg>
