<svg width="98" height="68" viewBox="0 0 98 68" fill="none" xmlns="http://www.w3.org/2000/svg">
<path fill-rule="evenodd" clip-rule="evenodd" d="M49 0H6C2.68629 0 0 2.68629 0 6V28C0 31.3137 2.68629 34 6 34H9C12.3137 34 14.9446 36.7089 15.5227 39.9718C18.3452 55.9018 32.2597 68 49 68C65.7403 68 79.6548 55.9018 82.4773 39.9718C83.0554 36.7089 85.6863 34 89 34H92C95.3137 34 98 31.3137 98 28V6C98 2.68629 95.3137 0 92 0H49Z" fill="#5177FF"/>
<path d="M17 34C17 16.3269 31.3269 2 49 2V2C66.6731 2 81 16.3269 81 34V34C81 51.6731 66.6731 66 49 66V66C31.3269 66 17 51.6731 17 34V34Z" fill="#FFD645"/>
<path d="M58.2285 33.9395C58.2285 33.6465 58.1016 33.3535 57.877 33.1484L51.4512 26.7227C51.207 26.4785 50.9434 26.3809 50.6699 26.3809C50.0645 26.3809 49.625 26.8105 49.625 27.3965C49.625 27.6992 49.7422 27.9629 49.9375 28.1582L52.125 30.375L54.9961 33.0117L52.7305 32.875H40.8555C40.2109 32.875 39.7715 33.3047 39.7715 33.9395C39.7715 34.5645 40.2109 35.0039 40.8555 35.0039H52.7305L55.0059 34.8672L52.125 37.5039L49.9375 39.7207C49.7422 39.9062 49.625 40.1699 49.625 40.4727C49.625 41.0586 50.0645 41.498 50.6699 41.498C50.9434 41.498 51.1973 41.3906 51.4316 41.166L57.877 34.7305C58.1016 34.5156 58.2285 34.2324 58.2285 33.9395Z" fill="#5177FF"/>
</svg>
