<svg width="24" height="24" viewBox="0 0 24 24" fill="none" xmlns="http://www.w3.org/2000/svg">
<path d="M16.6069 14.6714C12.1992 14.6714 9.45166 12.0234 9.45166 7.74854C9.45166 6.54492 9.65918 5.46582 9.96631 4.87646C10.1074 4.60254 10.1406 4.44482 10.1406 4.24561C10.1406 3.89697 9.8501 3.54004 9.42676 3.54004C9.32715 3.54004 9.13623 3.57324 8.87891 3.67285C5.76611 4.93457 3.59961 8.18018 3.59961 11.6914C3.59961 16.7383 7.27686 20.4238 12.3237 20.4238C15.9263 20.4238 18.8979 18.498 20.2593 15.377C20.3672 15.1196 20.4004 14.9121 20.4004 14.7876C20.4004 14.3726 20.0767 14.1069 19.7446 14.1069C19.5786 14.1069 19.4292 14.1318 19.1885 14.2314C18.5493 14.4971 17.5615 14.6714 16.6069 14.6714ZM5.19336 11.6416C5.19336 9.28418 6.38037 6.99316 8.31445 5.69824C8.09033 6.37061 7.96582 7.11768 7.96582 7.93945C7.96582 13.061 11.1118 16.1323 16.3413 16.1323C17.0552 16.1323 17.6694 16.0493 18.2505 15.8418C17.0386 17.7095 14.7974 18.8384 12.3735 18.8384C8.22314 18.8384 5.19336 15.8003 5.19336 11.6416Z" fill="#5177FF"/>
</svg>
