<svg width="24" height="24" viewBox="0 0 24 24" fill="none" xmlns="http://www.w3.org/2000/svg">
<path d="M16.6069 14.6714C12.1992 14.6714 9.45166 12.0234 9.45166 7.74854C9.45166 6.54492 9.65918 5.46582 9.96631 4.87646C10.1074 4.60254 10.1406 4.44482 10.1406 4.24561C10.1406 3.89697 9.8501 3.54004 9.42676 3.54004C9.32715 3.54004 9.13623 3.57324 8.87891 3.67285C5.76611 4.93457 3.59961 8.18018 3.59961 11.6914C3.59961 16.7383 7.27686 20.4238 12.3237 20.4238C15.9263 20.4238 18.8979 18.498 20.2593 15.377C20.3672 15.1196 20.4004 14.9121 20.4004 14.7876C20.4004 14.3726 20.0767 14.1069 19.7446 14.1069C19.5786 14.1069 19.4292 14.1318 19.1885 14.2314C18.5493 14.4971 17.5615 14.6714 16.6069 14.6714ZM5.19336 11.6416C5.19336 9.28418 6.38037 6.99316 8.31445 5.69824C8.09033 6.37061 7.96582 7.11768 7.96582 7.93945C7.96582 13.061 11.1118 16.1323 16.3413 16.1323C17.0552 16.1323 17.6694 16.0493 18.2505 15.8418C17.0386 17.7095 14.7974 18.8384 12.3735 18.8384C8.22314 18.8384 5.19336 15.8003 5.19336 11.6416Z" fill="#5177FF"/>
<mask id="mask0_820_4374" style="mask-type:alpha" maskUnits="userSpaceOnUse" x="11" y="3" width="10" height="10">
<circle cx="16" cy="8" r="5" fill="#D9D9D9"/>
</mask>
<g mask="url(#mask0_820_4374)">
<path d="M12.8301 3.58984C12.8301 3.1333 12.4482 2.75146 12 2.75146C11.5435 2.75146 11.1616 3.1333 11.1616 3.58984V5.2832C11.1616 5.73145 11.5435 6.11328 12 6.11328C12.4482 6.11328 12.8301 5.73145 12.8301 5.2832V3.58984ZM16.1504 6.68604C15.835 7.00146 15.835 7.53271 16.1587 7.85645C16.4741 8.17188 17.0137 8.18018 17.3374 7.84814L18.5327 6.65283C18.8564 6.3291 18.8481 5.78955 18.5327 5.46582C18.2173 5.15039 17.6777 5.15869 17.3623 5.47412L16.1504 6.68604ZM11.9917 16.373C14.374 16.373 16.3496 14.3975 16.3496 12.0068C16.3496 9.61621 14.374 7.64062 11.9917 7.64062C9.60938 7.64062 7.63379 9.61621 7.63379 12.0068C7.63379 14.3975 9.60938 16.373 11.9917 16.373ZM11.9917 14.8291C10.4478 14.8291 9.16943 13.5508 9.16943 12.0068C9.16943 10.4629 10.4478 9.18457 11.9917 9.18457C13.5356 9.18457 14.814 10.4629 14.814 12.0068C14.814 13.5508 13.5356 14.8291 11.9917 14.8291ZM20.4004 12.8369C20.8486 12.8369 21.2305 12.4551 21.2305 12.0068C21.2305 11.5503 20.8486 11.1768 20.4004 11.1768H18.7153C18.2671 11.1768 17.8853 11.5503 17.8853 12.0068C17.8853 12.4551 18.2671 12.8369 18.7153 12.8369H20.4004Z" fill="#5177FF"/>
</g>
<path d="M12.8301 3.58984C12.8301 3.1333 12.4482 2.75146 12 2.75146C11.5435 2.75146 11.1616 3.1333 11.1616 3.58984V5.2832C11.1616 5.73145 11.5435 6.11328 12 6.11328C12.4482 6.11328 12.8301 5.73145 12.8301 5.2832V3.58984ZM16.1504 6.68604C15.835 7.00146 15.835 7.53271 16.1587 7.85645C16.4741 8.17188 17.0137 8.18018 17.3374 7.84814L18.5327 6.65283C18.8564 6.3291 18.8481 5.78955 18.5327 5.46582C18.2173 5.15039 17.6777 5.15869 17.3623 5.47412L16.1504 6.68604ZM20.4004 12.8369C20.8486 12.8369 21.2305 12.4551 21.2305 12.0068C21.2305 11.5503 20.8486 11.1768 20.4004 11.1768H18.7153C18.2671 11.1768 17.8853 11.5503 17.8853 12.0068C17.8853 12.4551 18.2671 12.8369 18.7153 12.8369H20.4004Z" fill="#5177FF"/>
</svg>
