<svg width="76" height="120" viewBox="0 0 76 120" fill="none" xmlns="http://www.w3.org/2000/svg">
<circle cx="38" cy="38" r="38" fill="#FFD645"/>
<mask id="mask0_820_4047" style="mask-type:alpha" maskUnits="userSpaceOnUse" x="0" y="0" width="76" height="76">
<circle cx="38" cy="38" r="38" fill="#FFD600"/>
</mask>
<g mask="url(#mask0_820_4047)">
<path fill-rule="evenodd" clip-rule="evenodd" d="M38 22.5625C42.3088 22.5625 45.9029 25.6223 46.7281 29.6875H46.3125H29.6875H29.2719C30.0971 25.6223 33.6912 22.5625 38 22.5625ZM29.6875 31.4687H27.3125C27.3125 30.8619 27.3631 30.2668 27.4603 29.6875C28.3083 24.6328 32.7043 20.7812 38 20.7812C43.2957 20.7812 47.6917 24.6328 48.5397 29.6875C48.6369 30.2668 48.6875 30.8619 48.6875 31.4687H46.3125V44.5312L48.6875 44.5312V46.3125H46.5077L51.0625 87.875H42.1562H33.8438H24.9375L29.4923 46.3125H27.3125L27.3125 44.5312L29.6875 44.5312V31.4687ZM31.4688 31.4687V44.5312H44.5312V31.4687H31.4688ZM42.1562 86.0938H49.0754L44.7158 46.3125H31.2842L26.9246 86.0938H33.8438V80.1562C33.8438 77.8608 35.7046 76 38 76C40.2954 76 42.1562 77.8608 42.1562 80.1562V86.0938ZM40.375 86.0938V80.1562C40.375 78.8446 39.3117 77.7812 38 77.7812C36.6883 77.7812 35.625 78.8446 35.625 80.1562V86.0938H40.375ZM38 40.9687C39.6396 40.9687 40.9687 39.6396 40.9687 38C40.9687 36.3604 39.6396 35.0312 38 35.0312C36.3604 35.0312 35.0312 36.3604 35.0312 38C35.0312 39.6396 36.3604 40.9687 38 40.9687ZM38 42.75C40.6233 42.75 42.75 40.6234 42.75 38C42.75 35.3766 40.6233 33.25 38 33.25C35.3766 33.25 33.25 35.3766 33.25 38C33.25 40.6234 35.3766 42.75 38 42.75Z" fill="#5177FF"/>
</g>
</svg>
