<svg width="100" height="109" viewBox="0 0 100 109" fill="none" xmlns="http://www.w3.org/2000/svg">
<path fill-rule="evenodd" clip-rule="evenodd" d="M100 8C100 3.58172 96.4183 0 92 0H8C3.58172 0 0 3.58172 0 8V32C0 36.4183 3.58172 40 8 40V40C12.4183 40 15.903 43.6322 16.9296 47.9295C20.5018 62.8825 33.9526 74 50 74C66.0474 74 79.4982 62.8825 83.0704 47.9295C84.097 43.6322 87.5817 40 92 40V40C96.4183 40 100 36.4183 100 32V8Z" fill="#5177FF"/>
<circle cx="50" cy="40" r="32" fill="#FFD645"/>
<mask id="mask0_101_264" style="mask-type:alpha" maskUnits="userSpaceOnUse" x="18" y="8" width="64" height="64">
<circle cx="50" cy="40" r="32" fill="#FFD600"/>
</mask>
<g mask="url(#mask0_101_264)">
<path fill-rule="evenodd" clip-rule="evenodd" d="M 50 27 C 53.628 27 56.655 29.577 57.35 33 L 57 33 L 43 33 L 42.65 33 C 43.345 29.577 46.372 27 50 27 Z M 43 34.5 L 41 34.5 C 41 33.989 41.043 33.488 41.124 33 C 41.839 28.743 45.541 25.5 50 25.5 C 54.46 25.5 58.161 28.743 58.876 33 C 58.957 33.488 59 33.989 59 34.5 L 57 34.5 L 57 45.5 L 59 45.5 L 59 47 L 57.164 47 L 59.789 71.499 L 50.551 73.046 L 44.133 72.404 L 40.226 71.347 L 42.836 47 L 41 47 L 41 45.5 L 43 45.5 L 43 34.5 Z M 44.5 34.5 L 44.5 45.5 L 55.5 45.5 L 55.5 34.5 L 44.5 34.5 Z M 53.187 72.915 L 58.424 71.829 L 55.655 47 L 44.345 47 L 41.576 71.791 L 46.046 72.721 L 53.187 72.915 Z M 51.882 72.923 L 48 72.889 L 51.882 72.923 Z M 50 42.5 C 51.381 42.5 52.5 41.381 52.5 40 C 52.5 38.619 51.381 37.5 50 37.5 C 48.619 37.5 47.5 38.619 47.5 40 C 47.5 41.381 48.619 42.5 50 42.5 Z M 50 44 C 52.209 44 54 42.209 54 40 C 54 37.791 52.209 36 50 36 C 47.791 36 46 37.791 46 40 C 46 42.209 47.791 44 50 44 Z" fill="#5177FF"></path>
</g>
</svg>
