<svg width="100" height="109" viewBox="0 0 100 109" fill="none" xmlns="http://www.w3.org/2000/svg">
<path fill-rule="evenodd" clip-rule="evenodd" d="M100 8C100 3.58172 96.4183 0 92 0H8C3.58172 0 0 3.58172 0 8V32C0 36.4183 3.58172 40 8 40V40C12.4183 40 15.903 43.6322 16.9296 47.9295C20.5018 62.8825 33.9526 74 50 74C66.0474 74 79.4982 62.8825 83.0704 47.9295C84.097 43.6322 87.5817 40 92 40V40C96.4183 40 100 36.4183 100 32V8Z" fill="#5177FF"/>
<circle cx="50" cy="40" r="32" fill="#FFD645"/>
<mask id="mask0_101_264" style="mask-type:alpha" maskUnits="userSpaceOnUse" x="18" y="8" width="64" height="64">
<circle cx="50" cy="40" r="32" fill="#FFD600"/>
</mask>
<g mask="url(#mask0_101_264)">
<path fill-rule="evenodd" clip-rule="evenodd" d="M50 27C53.6284 27 56.6551 29.5766 57.35 33H57H43H42.65C43.3449 29.5766 46.3716 27 50 27ZM43 34.5H41C41 33.9889 41.0426 33.4878 41.1244 33C41.8386 28.7434 45.5405 25.5 50 25.5C54.4595 25.5 58.1614 28.7434 58.8756 33C58.9574 33.4878 59 33.9889 59 34.5H57V45.5H59L59 47H57.1644L61 82H53.5H46.5H39L42.8356 47H41V45.5L43 45.5V34.5ZM44.5 34.5V45.5H55.5V34.5H44.5ZM53.5 80.5H59.3266L55.6554 47H44.3446L40.6734 80.5H46.5V75.5C46.5 73.567 48.067 72 50 72C51.933 72 53.5 73.567 53.5 75.5V80.5ZM52 80.5V75.5C52 74.3954 51.1046 73.5 50 73.5C48.8954 73.5 48 74.3954 48 75.5V80.5H52ZM50 42.5C51.3807 42.5 52.5 41.3807 52.5 40C52.5 38.6193 51.3807 37.5 50 37.5C48.6193 37.5 47.5 38.6193 47.5 40C47.5 41.3807 48.6193 42.5 50 42.5ZM50 44C52.2091 44 54 42.2091 54 40C54 37.7909 52.2091 36 50 36C47.7909 36 46 37.7909 46 40C46 42.2091 47.7909 44 50 44Z" fill="#5177FF"/>
</g>
</svg>
