<svg width="76" height="45" viewBox="0 0 76 45" fill="none" xmlns="http://www.w3.org/2000/svg">
<path fill-rule="evenodd" clip-rule="evenodd" d="M76 6C76 2.68629 73.3137 0 70 0H6C2.68629 0 0 2.68629 0 6V17C0 20.3137 2.68629 23 6 23H10C13.3137 23 15.917 25.7364 16.8079 28.9281C19.3958 38.1989 27.9037 45 38 45C48.0963 45 56.6042 38.1989 59.1921 28.9281C60.083 25.7364 62.6863 23 66 23H70C73.3137 23 76 20.3137 76 17V6Z" fill="#5177FF"/>
<path d="M18 23C18 11.9543 26.9543 3 38 3C49.0457 3 58 11.9543 58 23C58 34.0457 49.0457 43 38 43C26.9543 43 18 34.0457 18 23Z" fill="#F3F3F3"/>
<path d="M41.0796 19.9521C41.9761 19.9521 42.7397 19.396 43.0552 18.6074H45.8027C46.2095 18.6074 46.5581 18.2505 46.5581 17.8188C46.5581 17.3872 46.2178 17.0303 45.8027 17.0303H43.0635C42.748 16.2417 41.9761 15.6855 41.0796 15.6855C40.1831 15.6855 39.4111 16.2417 39.0957 17.0303H30.2222C29.7822 17.0303 29.4419 17.3872 29.4419 17.8188C29.4419 18.2505 29.7905 18.6074 30.2222 18.6074H39.0957C39.4111 19.396 40.1831 19.9521 41.0796 19.9521ZM41.0796 18.8315C40.5151 18.8315 40.0586 18.3833 40.0586 17.8188C40.0586 17.2378 40.5151 16.7979 41.0796 16.7979C41.6523 16.7979 42.0923 17.2378 42.0923 17.8188C42.0923 18.3833 41.6523 18.8315 41.0796 18.8315ZM30.189 22.2017C29.7822 22.2017 29.4419 22.5503 29.4419 22.9902C29.4419 23.4136 29.7905 23.7705 30.189 23.7705H33.0361C33.3433 24.5591 34.1152 25.1235 35.02 25.1235C35.9082 25.1235 36.6802 24.5591 36.9956 23.7705H45.7778C46.2095 23.7705 46.5581 23.4219 46.5581 22.9902C46.5581 22.5503 46.2178 22.2017 45.7778 22.2017H36.9956C36.6802 21.4131 35.9082 20.8569 35.02 20.8569C34.1235 20.8569 33.3516 21.4131 33.0361 22.2017H30.189ZM35.02 24.0029C34.4473 24.0029 33.999 23.5547 33.999 22.9902C33.999 22.4092 34.4473 21.9692 35.02 21.9692C35.5928 21.9692 36.0327 22.4092 36.0327 22.9902C36.0327 23.5547 35.5928 24.0029 35.02 24.0029ZM41.0796 30.2866C41.9761 30.2866 42.748 29.7305 43.0635 28.9419H45.8027C46.2095 28.9419 46.5581 28.585 46.5581 28.1533C46.5581 27.7134 46.2178 27.3647 45.8027 27.3647H43.0552C42.748 26.5762 41.9761 26.02 41.0796 26.02C40.1831 26.02 39.4111 26.5762 39.0957 27.3647H30.2222C29.7822 27.3647 29.4419 27.7217 29.4419 28.1533C29.4419 28.585 29.7905 28.9419 30.2222 28.9419H39.0957C39.4111 29.7305 40.1831 30.2866 41.0796 30.2866ZM41.0796 29.1743C40.5151 29.1743 40.0586 28.7178 40.0586 28.1533C40.0586 27.5806 40.5151 27.1323 41.0796 27.1323C41.6523 27.1323 42.0923 27.5806 42.0923 28.1533C42.0923 28.7178 41.6523 29.1743 41.0796 29.1743Z" fill="#5177FF"/>
</svg>
