<svg width="24" height="24" viewBox="0 0 24 24" fill="none" xmlns="http://www.w3.org/2000/svg">
<path d="M12.8301 3.58984C12.8301 3.1333 12.4482 2.75146 12 2.75146C11.5435 2.75146 11.1616 3.1333 11.1616 3.58984V5.2832C11.1616 5.73145 11.5435 6.11328 12 6.11328C12.4482 6.11328 12.8301 5.73145 12.8301 5.2832V3.58984ZM16.1504 6.68604C15.835 7.00146 15.835 7.53271 16.1587 7.85645C16.4741 8.17188 17.0137 8.18018 17.3374 7.84814L18.5327 6.65283C18.8564 6.3291 18.8481 5.78955 18.5327 5.46582C18.2173 5.15039 17.6777 5.15869 17.3623 5.47412L16.1504 6.68604ZM6.6543 7.84814C6.96973 8.17188 7.50928 8.17188 7.82471 7.85645C8.14844 7.54932 8.14844 6.99316 7.84131 6.68604L6.6377 5.47412C6.33057 5.16699 5.78271 5.15039 5.46729 5.46582C5.15186 5.78955 5.14355 6.3291 5.45898 6.64453L6.6543 7.84814ZM11.9917 16.373C14.374 16.373 16.3496 14.3975 16.3496 12.0068C16.3496 9.61621 14.374 7.64062 11.9917 7.64062C9.60938 7.64062 7.63379 9.61621 7.63379 12.0068C7.63379 14.3975 9.60938 16.373 11.9917 16.373ZM11.9917 14.8291C10.4478 14.8291 9.16943 13.5508 9.16943 12.0068C9.16943 10.4629 10.4478 9.18457 11.9917 9.18457C13.5356 9.18457 14.814 10.4629 14.814 12.0068C14.814 13.5508 13.5356 14.8291 11.9917 14.8291ZM20.4004 12.8369C20.8486 12.8369 21.2305 12.4551 21.2305 12.0068C21.2305 11.5503 20.8486 11.1768 20.4004 11.1768H18.7153C18.2671 11.1768 17.8853 11.5503 17.8853 12.0068C17.8853 12.4551 18.2671 12.8369 18.7153 12.8369H20.4004ZM3.59131 11.1768C3.14307 11.1768 2.76123 11.5503 2.76123 12.0068C2.76123 12.4551 3.14307 12.8369 3.59131 12.8369H5.27637C5.73291 12.8369 6.11475 12.4551 6.11475 12.0068C6.11475 11.5503 5.73291 11.1768 5.27637 11.1768H3.59131ZM17.3291 16.1655C17.0137 15.8501 16.4741 15.8501 16.1504 16.1655C15.835 16.4893 15.835 17.0205 16.1587 17.3442L17.3623 18.5479C17.686 18.8633 18.2173 18.855 18.541 18.5312C18.8564 18.2158 18.8564 17.6846 18.5327 17.3608L17.3291 16.1655ZM5.45898 17.3525C5.13525 17.6763 5.13525 18.2158 5.44238 18.5312C5.76611 18.8467 6.30566 18.855 6.62109 18.5396L7.82471 17.3442C8.14844 17.0205 8.14844 16.4893 7.84131 16.1738C7.51758 15.8501 6.97803 15.8501 6.6543 16.1655L5.45898 17.3525ZM12.8301 18.7305C12.8301 18.2822 12.4482 17.9004 12 17.9004C11.5435 17.9004 11.1616 18.2822 11.1616 18.7305V20.4238C11.1616 20.8721 11.5435 21.2622 12 21.2622C12.4482 21.2622 12.8301 20.8721 12.8301 20.4238V18.7305Z" fill="white"/>
</svg>
