<svg width="136" height="205" viewBox="0 0 136 205" fill="none" xmlns="http://www.w3.org/2000/svg">
<path d="M31.6281 179.912V191H29.1321V182.024H25.0041V191H22.5081V179.912H31.6281ZM40.2236 179.784C41.877 179.784 43.1463 180.077 44.0316 180.664C44.917 181.24 45.3596 182.189 45.3596 183.512C45.3596 184.845 44.9116 185.811 44.0156 186.408C43.1196 186.995 41.8396 187.288 40.1756 187.288H39.3916V191H36.8956V180.072C37.4396 179.965 38.0156 179.891 38.6236 179.848C39.2316 179.805 39.765 179.784 40.2236 179.784ZM40.3836 181.912C40.2023 181.912 40.021 181.917 39.8396 181.928C39.669 181.939 39.5196 181.949 39.3916 181.96V185.16H40.1756C41.0396 185.16 41.6903 185.043 42.1276 184.808C42.565 184.573 42.7836 184.136 42.7836 183.496C42.7836 183.187 42.725 182.931 42.6076 182.728C42.501 182.525 42.341 182.365 42.1276 182.248C41.925 182.12 41.6743 182.035 41.3756 181.992C41.077 181.939 40.7463 181.912 40.3836 181.912ZM51.9885 185.448C51.9885 185.992 52.0525 186.483 52.1805 186.92C52.3192 187.357 52.5112 187.736 52.7565 188.056C53.0125 188.365 53.3218 188.605 53.6845 188.776C54.0472 188.947 54.4632 189.032 54.9325 189.032C55.3912 189.032 55.8018 188.947 56.1645 188.776C56.5378 188.605 56.8472 188.365 57.0925 188.056C57.3485 187.736 57.5405 187.357 57.6685 186.92C57.8072 186.483 57.8765 185.992 57.8765 185.448C57.8765 184.904 57.8072 184.413 57.6685 183.976C57.5405 183.528 57.3485 183.149 57.0925 182.84C56.8472 182.52 56.5378 182.275 56.1645 182.104C55.8018 181.933 55.3912 181.848 54.9325 181.848C54.4632 181.848 54.0472 181.939 53.6845 182.12C53.3218 182.291 53.0125 182.536 52.7565 182.856C52.5112 183.165 52.3192 183.544 52.1805 183.992C52.0525 184.429 51.9885 184.915 51.9885 185.448ZM60.4525 185.448C60.4525 186.397 60.3085 187.235 60.0205 187.96C59.7432 188.675 59.3592 189.277 58.8685 189.768C58.3778 190.248 57.7912 190.611 57.1085 190.856C56.4365 191.101 55.7112 191.224 54.9325 191.224C54.1752 191.224 53.4605 191.101 52.7885 190.856C52.1165 190.611 51.5298 190.248 51.0285 189.768C50.5272 189.277 50.1325 188.675 49.8445 187.96C49.5565 187.235 49.4125 186.397 49.4125 185.448C49.4125 184.499 49.5618 183.667 49.8605 182.952C50.1592 182.227 50.5592 181.619 51.0605 181.128C51.5725 180.637 52.1592 180.269 52.8205 180.024C53.4925 179.779 54.1965 179.656 54.9325 179.656C55.6898 179.656 56.4045 179.779 57.0765 180.024C57.7485 180.269 58.3352 180.637 58.8365 181.128C59.3378 181.619 59.7325 182.227 60.0205 182.952C60.3085 183.667 60.4525 184.499 60.4525 185.448ZM68.1771 179.912C68.3691 180.264 68.5878 180.701 68.8331 181.224C69.0891 181.736 69.3505 182.296 69.6171 182.904C69.8945 183.501 70.1665 184.115 70.4331 184.744C70.6998 185.373 70.9505 185.965 71.1851 186.52C71.4198 185.965 71.6705 185.373 71.9371 184.744C72.2038 184.115 72.4705 183.501 72.7371 182.904C73.0145 182.296 73.2758 181.736 73.5211 181.224C73.7771 180.701 74.0011 180.264 74.1931 179.912H76.4651C76.5718 180.648 76.6678 181.475 76.7531 182.392C76.8491 183.299 76.9291 184.248 76.9931 185.24C77.0678 186.221 77.1318 187.208 77.1851 188.2C77.2491 189.192 77.3025 190.125 77.3451 191H74.9131C74.8811 189.923 74.8385 188.749 74.7851 187.48C74.7318 186.211 74.6518 184.931 74.5451 183.64C74.3531 184.088 74.1398 184.584 73.9051 185.128C73.6705 185.672 73.4358 186.216 73.2011 186.76C72.9771 187.304 72.7585 187.827 72.5451 188.328C72.3318 188.819 72.1505 189.24 72.0011 189.592H70.2571C70.1078 189.24 69.9265 188.819 69.7131 188.328C69.4998 187.827 69.2758 187.304 69.0411 186.76C68.8171 186.216 68.5878 185.672 68.3531 185.128C68.1185 184.584 67.9051 184.088 67.7131 183.64C67.6065 184.931 67.5265 186.211 67.4731 187.48C67.4198 188.749 67.3771 189.923 67.3451 191H64.9131C64.9558 190.125 65.0038 189.192 65.0571 188.2C65.1211 187.208 65.1851 186.221 65.2491 185.24C65.3238 184.248 65.4038 183.299 65.4891 182.392C65.5851 181.475 65.6865 180.648 65.7931 179.912H68.1771ZM82.2925 179.912H84.7885V191H82.2925V179.912ZM96.743 179.912H99.239V191H96.743V186.296H92.551V191H90.055V179.912H92.551V184.152H96.743V179.912ZM113.049 187.368C113.049 188.605 112.59 189.544 111.673 190.184C110.756 190.824 109.476 191.144 107.833 191.144C107.374 191.144 106.846 191.112 106.249 191.048C105.662 190.984 105.081 190.883 104.505 190.744V179.912H107.001V183.592C107.14 183.581 107.262 183.576 107.369 183.576C107.486 183.576 107.604 183.576 107.721 183.576C109.524 183.576 110.862 183.885 111.737 184.504C112.612 185.123 113.049 186.077 113.049 187.368ZM107.497 185.688C107.444 185.688 107.369 185.688 107.273 185.688C107.177 185.688 107.086 185.693 107.001 185.704V189.016C107.118 189.027 107.252 189.032 107.401 189.032C107.55 189.032 107.732 189.032 107.945 189.032C108.276 189.032 108.596 189.005 108.905 188.952C109.214 188.899 109.486 188.808 109.721 188.68C109.956 188.552 110.142 188.381 110.281 188.168C110.42 187.955 110.489 187.688 110.489 187.368C110.489 187.037 110.42 186.765 110.281 186.552C110.142 186.339 109.94 186.168 109.673 186.04C109.417 185.912 109.102 185.821 108.729 185.768C108.366 185.715 107.956 185.688 107.497 185.688Z" fill="#FFD645"/>
<circle cx="68" cy="68" r="64" fill="#FFD645"/>
<path d="M47.6734 150.5L55.3446 80.5H80.6554L88.3266 150.5H47.6734Z" stroke="#FFD645" stroke-width="3"/>
<path d="M12.5 68C12.5 37.3482 37.3482 12.5 68 12.5C98.6518 12.5 123.5 37.3482 123.5 68V203.5H12.5V68Z" stroke="#FFD645" stroke-width="3"/>
<line x1="11" y1="167.5" x2="125" y2="167.5" stroke="#FFD645" stroke-width="3"/>
<line x1="50" y1="80.5" x2="86" y2="80.5" stroke="white" stroke-width="3"/>
<rect x="55.5" y="55.5" width="25" height="25" stroke="white" stroke-width="3"/>
<path d="M62.5 139C62.5 135.962 64.9624 133.5 68 133.5C71.0376 133.5 73.5 135.962 73.5 139V150.5H62.5V139Z" stroke="#FFD645" stroke-width="3"/>
<rect x="40.5" y="150.5" width="55" height="17" stroke="#FFD645" stroke-width="3"/>
<circle cx="68" cy="68" r="6.5" stroke="white" stroke-width="3"/>
<mask id="path-11-inside-1_39_3539" fill="white">
<path fill-rule="evenodd" clip-rule="evenodd" d="M86 57C86 47.0589 77.9411 39 68 39C58.0589 39 50 47.0589 50 57H86Z"/>
</mask>
<path d="M86 57V60H89V57H86ZM50 57H47V60H50V57ZM68 42C76.2843 42 83 48.7157 83 57H89C89 45.402 79.598 36 68 36V42ZM53 57C53 48.7157 59.7157 42 68 42V36C56.402 36 47 45.402 47 57H53ZM50 60H86V54H50V60Z" fill="white" mask="url(#path-11-inside-1_39_3539)"/>
<mask id="mask0_39_3539" style="mask-type:alpha" maskUnits="userSpaceOnUse" x="4" y="4" width="128" height="128">
<circle cx="68" cy="68" r="64" fill="#FFD600"/>
</mask>
<g mask="url(#mask0_39_3539)">
<path d="M47.6734 150.5L55.3446 80.5H80.6554L88.3266 150.5H47.6734Z" stroke="#5177FF" stroke-width="3"/>
<path d="M12.5 68C12.5 37.3482 37.3482 12.5 68 12.5C98.6518 12.5 123.5 37.3482 123.5 68V203.5H12.5V68Z" stroke="#5177FF" stroke-width="3"/>
<line x1="50" y1="80.5" x2="86" y2="80.5" stroke="#5177FF" stroke-width="3"/>
<rect x="55.5" y="55.5" width="25" height="25" stroke="#5177FF" stroke-width="3"/>
<circle cx="68" cy="68" r="6.5" stroke="#5177FF" stroke-width="3"/>
<mask id="path-19-inside-2_39_3539" fill="white">
<path fill-rule="evenodd" clip-rule="evenodd" d="M86 57C86 47.0589 77.9411 39 68 39C58.0589 39 50 47.0589 50 57H86Z"/>
</mask>
<path d="M86 57V60H89V57H86ZM50 57H47V60H50V57ZM68 42C76.2843 42 83 48.7157 83 57H89C89 45.402 79.598 36 68 36V42ZM53 57C53 48.7157 59.7157 42 68 42V36C56.402 36 47 45.402 47 57H53ZM50 60H86V54H50V60Z" fill="#5177FF" mask="url(#path-19-inside-2_39_3539)"/>
</g>
</svg>
